<?xml version="1.0" ?><svg height="30" id="svg8" version="1.1" viewBox="0 0 35 35" width="30" xmlns="http://www.w3.org/2000/svg" xmlns:cc="http://creativecommons.org/ns#" xmlns:dc="http://purl.org/dc/elements/1.1/" xmlns:rdf="http://www.w3.org/1999/02/22-rdf-syntax-ns#" xmlns:svg="http://www.w3.org/2000/svg"><defs id="defs2"/><g id="g2297" style="display:inline" transform="translate(-200.00014,-450.64952)"><path d="m 212.01953,453.08398 a 1.0001,1.0001 0 0 0 -0.89844,0.54493 l -2.61328,5.10156 -5.66406,0.88867 a 1.0001,1.0001 0 0 0 -0.55273,1.69336 l 4.04296,4.06445 -0.90234,5.66016 a 1.0001,1.0001 0 0 0 1.43945,1.05078 l 5.11329,-2.58984 5.10351,2.60742 a 1.0001,1.0001 0 0 0 1.44336,-1.04492 l -0.88281,-5.66407 4.05859,-4.04882 a 1.0001,1.0001 0 0 0 -0.54883,-1.69532 l -5.6582,-0.91015 -2.5957,-5.11133 a 1.0001,1.0001 0 0 0 -0.88477,-0.54688 z m -0.0117,3.20118 1.93946,3.8164 a 1.0001,1.0001 0 0 0 0.73242,0.53516 l 4.22656,0.67969 -3.03125,3.02343 a 1.0001,1.0001 0 0 0 -0.28125,0.86328 l 0.6582,4.22852 -3.81054,-1.94726 a 1.0001,1.0001 0 0 0 -0.90821,-0.002 l -3.81836,1.93555 0.67383,-4.22852 a 1.0001,1.0001 0 0 0 -0.27734,-0.86328 l -3.01953,-3.03515 4.22851,-0.66407 a 1.0001,1.0001 0 0 0 0.73438,-0.53125 z" id="path2289" style="color:#000000;font-style:normal;font-variant:normal;font-weight:normal;font-stretch:normal;font-size:medium;line-height:normal;font-family:sans-serif;font-variant-ligatures:normal;font-variant-position:normal;font-variant-caps:normal;font-variant-numeric:normal;font-variant-alternates:normal;font-variant-east-asian:normal;font-feature-settings:normal;font-variation-settings:normal;text-indent:0;text-align:start;text-decoration:none;text-decoration-line:none;text-decoration-style:solid;text-decoration-color:#000000;letter-spacing:normal;word-spacing:normal;text-transform:none;writing-mode:lr-tb;direction:ltr;text-orientation:mixed;dominant-baseline:auto;baseline-shift:baseline;text-anchor:start;white-space:normal;shape-padding:0;shape-margin:0;inline-size:0;clip-rule:nonzero;display:inline;overflow:visible;visibility:visible;opacity:1;isolation:auto;mix-blend-mode:normal;color-interpolation:sRGB;color-interpolation-filters:linearRGB;solid-color:#000000;solid-opacity:1;vector-effect:none;fill:#F48225;fill-opacity:1;fill-rule:nonzero;stroke:none;stroke-linecap:round;stroke-linejoin:round;stroke-miterlimit:4;stroke-dasharray:none;stroke-dashoffset:0;stroke-opacity:1;color-rendering:auto;image-rendering:auto;shape-rendering:auto;text-rendering:auto;enable-background:accumulate;stop-color:#000000;stop-opacity:1"/></g></svg>